<mxfile host="app.diagrams.net" modified="2021-08-17T01:29:24.724Z" agent="5.0 (Windows NT 10.0; Win64; x64) AppleWebKit/537.36 (KHTML, like Gecko) Chrome/92.0.4515.131 Safari/537.36" etag="HPCog2h4U6NXFwl5c6zo" version="14.9.7" type="github" pages="2">
  <diagram id="i3EODEmeC92AHT660ykD" name="Page-1">
    <mxGraphModel dx="1422" dy="1875" grid="1" gridSize="10" guides="1" tooltips="1" connect="1" arrows="1" fold="1" page="1" pageScale="1" pageWidth="827" pageHeight="1169" math="0" shadow="0">
      <root>
        <mxCell id="0" />
        <mxCell id="1" parent="0" />
        <mxCell id="8UdZ46kUa3aI3djLa9F3-1" value="" style="ellipse;whiteSpace=wrap;html=1;" vertex="1" parent="1">
          <mxGeometry x="80" y="-260" width="120" height="80" as="geometry" />
        </mxCell>
      </root>
    </mxGraphModel>
  </diagram>
  <diagram id="HuE3cGDocek7Y1gJ_8sN" name="Page-2">
    <mxGraphModel dx="1422" dy="706" grid="1" gridSize="10" guides="1" tooltips="1" connect="1" arrows="1" fold="1" page="1" pageScale="1" pageWidth="827" pageHeight="1169" math="0" shadow="0">
      <root>
        <mxCell id="3hDrmMXTdW70uatTJRGK-0" />
        <mxCell id="3hDrmMXTdW70uatTJRGK-1" parent="3hDrmMXTdW70uatTJRGK-0" />
        <mxCell id="3hDrmMXTdW70uatTJRGK-2" value="" style="shape=cylinder3;whiteSpace=wrap;html=1;boundedLbl=1;backgroundOutline=1;size=15;" vertex="1" parent="3hDrmMXTdW70uatTJRGK-1">
          <mxGeometry x="140" y="260" width="60" height="80" as="geometry" />
        </mxCell>
        <mxCell id="3hDrmMXTdW70uatTJRGK-3" value="" style="rounded=0;whiteSpace=wrap;html=1;" vertex="1" parent="3hDrmMXTdW70uatTJRGK-1">
          <mxGeometry x="330" y="370" width="120" height="60" as="geometry" />
        </mxCell>
        <mxCell id="3hDrmMXTdW70uatTJRGK-6" value="" style="shape=cylinder3;whiteSpace=wrap;html=1;boundedLbl=1;backgroundOutline=1;size=15;" vertex="1" parent="3hDrmMXTdW70uatTJRGK-1">
          <mxGeometry x="140" y="460" width="60" height="80" as="geometry" />
        </mxCell>
        <mxCell id="dVIP0ZsvW2PfLZ4hkj1O-0" value="" style="ellipse;whiteSpace=wrap;html=1;aspect=fixed;" vertex="1" parent="3hDrmMXTdW70uatTJRGK-1">
          <mxGeometry x="250" y="680" width="80" height="80" as="geometry" />
        </mxCell>
        <mxCell id="dVIP0ZsvW2PfLZ4hkj1O-1" value="" style="ellipse;whiteSpace=wrap;html=1;aspect=fixed;" vertex="1" parent="3hDrmMXTdW70uatTJRGK-1">
          <mxGeometry x="450" y="590" width="80" height="80" as="geometry" />
        </mxCell>
      </root>
    </mxGraphModel>
  </diagram>
</mxfile>
